<svg width="24" height="25" viewBox="0 0 24 25" fill="none" xmlns="http://www.w3.org/2000/svg">
<rect x="0.5" y="1.2998" width="23" height="23" rx="11.5" fill="#0F62FE"/>
<rect x="0.5" y="1.2998" width="23" height="23" rx="11.5" stroke="white"/>
<path d="M12.0024 19.75C11.0691 19.75 10.1915 19.5729 9.36975 19.2186C8.54813 18.8644 7.83338 18.3836 7.2255 17.7764C6.61763 17.1691 6.13644 16.455 5.78194 15.634C5.42731 14.8131 5.25 13.9359 5.25 13.0024C5.25 12.0691 5.42712 11.1915 5.78137 10.3697C6.13562 9.54812 6.61637 8.83337 7.22362 8.2255C7.83087 7.61762 8.545 7.13644 9.366 6.78194C10.1869 6.42731 11.0641 6.25 11.9976 6.25C12.9309 6.25 13.8085 6.42713 14.6303 6.78138C15.4519 7.13563 16.1666 7.61638 16.7745 8.22363C17.3824 8.83088 17.8636 9.545 18.2181 10.366C18.5727 11.1869 18.75 12.0641 18.75 12.9976C18.75 13.9309 18.5729 14.8085 18.2186 15.6303C17.8644 16.4519 17.3836 17.1666 16.7764 17.7745C16.1691 18.3824 15.455 18.8636 14.634 19.2181C13.8131 19.5727 12.9359 19.75 12.0024 19.75ZM12 16.1153C12.4279 15.6874 12.8062 15.2487 13.1349 14.7991C13.4168 14.4151 13.6755 13.9889 13.911 13.5207C14.1466 13.0524 14.2644 12.5932 14.2644 12.1429C14.2644 11.5239 14.0427 10.9928 13.5992 10.5496C13.1557 10.1063 12.6225 9.88469 11.9996 9.88469C11.3768 9.88469 10.8437 10.1064 10.4004 10.5498C9.95719 10.9933 9.73556 11.5264 9.73556 12.1491C9.73556 12.5953 9.85425 13.0517 10.0916 13.5184C10.329 13.9852 10.5901 14.4138 10.875 14.8043C11.1971 15.2504 11.5721 15.6874 12 16.1153ZM12.0009 13C11.7647 13 11.5636 12.9174 11.3978 12.7521C11.232 12.5868 11.1491 12.386 11.1491 12.1499C11.1491 11.9137 11.2318 11.7128 11.397 11.5469C11.5623 11.381 11.7629 11.2981 11.9991 11.2981C12.2353 11.2981 12.4364 11.3807 12.6023 11.5459C12.768 11.7113 12.8509 11.9121 12.8509 12.1482C12.8509 12.3843 12.7682 12.5853 12.603 12.7512C12.4377 12.9171 12.2371 13 12.0009 13Z" fill="white"/>
</svg>
