<svg width="24" height="25" viewBox="0 0 24 25" fill="none" xmlns="http://www.w3.org/2000/svg">
<rect x="0.5" y="1.2998" width="23" height="23" rx="11.5" fill="#0F62FE"/>
<rect x="0.5" y="1.2998" width="23" height="23" rx="11.5" stroke="white"/>
<path d="M9.7405 17.4616H12.9713C13.0674 17.4616 13.1491 17.4279 13.2164 17.3606C13.2838 17.2933 13.3174 17.2116 13.3174 17.1155V16.625C13.3174 16.5289 13.2838 16.4472 13.2164 16.3799C13.1491 16.3126 13.0674 16.2789 12.9713 16.2789H9.7405C9.64438 16.2789 9.56262 16.3126 9.49525 16.3799C9.428 16.4472 9.39437 16.5289 9.39437 16.625V17.1155C9.39437 17.2116 9.428 17.2933 9.49525 17.3606C9.56262 17.4279 9.64438 17.4616 9.7405 17.4616ZM9.66831 11.9808H13.0433C13.1261 11.9808 13.2021 11.9462 13.2713 11.8769C13.3404 11.8077 13.375 11.7318 13.375 11.6491C13.375 11.5664 13.3404 11.4904 13.2713 11.4211C13.2021 11.352 13.1261 11.3174 13.0433 11.3174H9.66831C9.58569 11.3174 9.50975 11.352 9.4405 11.4211C9.37125 11.4904 9.33663 11.5664 9.33663 11.6491C9.33663 11.7318 9.37125 11.8077 9.4405 11.8769C9.50975 11.9462 9.58569 11.9808 9.66831 11.9808ZM9.66831 10.3942H13.0433C13.1261 10.3942 13.2021 10.3596 13.2713 10.2905C13.3404 10.2212 13.375 10.1453 13.375 10.0625C13.375 9.97988 13.3404 9.90394 13.2713 9.83469C13.2021 9.76544 13.1261 9.73081 13.0433 9.73081H9.66831C9.58569 9.73081 9.50975 9.76544 9.4405 9.83469C9.37125 9.90394 9.33663 9.97988 9.33663 10.0625C9.33663 10.1453 9.37125 10.2212 9.4405 10.2905C9.50975 10.3596 9.58569 10.3942 9.66831 10.3942ZM15.7116 12.5V11.75H16.7502C16.8847 11.75 16.9953 11.7068 17.0819 11.6203C17.1684 11.5338 17.2116 11.4232 17.2116 11.2886V10.4231C17.2116 10.2884 17.1684 10.1779 17.0819 10.0914C16.9953 10.0049 16.8847 9.96162 16.7502 9.96162H15.7116V9.21162H16.7502C17.0833 9.21162 17.3685 9.33025 17.6058 9.5675C17.843 9.80475 17.9616 10.0899 17.9616 10.4231V10.4808H19.2308C19.3371 10.4808 19.4261 10.5168 19.498 10.5888C19.5699 10.6608 19.6058 10.75 19.6058 10.8564C19.6058 10.9628 19.5699 11.0518 19.498 11.1234C19.4261 11.195 19.3371 11.2308 19.2308 11.2308H17.9616V11.2886C17.9616 11.6217 17.843 11.9069 17.6058 12.1441C17.3685 12.3814 17.0833 12.5 16.7502 12.5H15.7116ZM12.8558 15.5289H12.1058V12.9616H14.5C14.6346 12.9616 14.7453 12.9183 14.8319 12.8317C14.9184 12.7452 14.9616 12.6346 14.9616 12.5V9.21162C14.9616 9.077 14.9184 8.96644 14.8319 8.87994C14.7453 8.79331 14.6346 8.75 14.5 8.75H9.25C8.8375 8.75 8.48438 8.89688 8.19063 9.19063C7.89688 9.48438 7.75 9.8375 7.75 10.25V11.4616C7.75 11.8741 7.89688 12.2273 8.19063 12.521C8.48438 12.8148 8.8375 12.9616 9.25 12.9616H10.6058V15.5289H9.85581V13.7116H9.25C8.63125 13.7116 8.10156 13.4913 7.66094 13.0507C7.22031 12.6101 7 12.0804 7 11.4616V10.25C7 9.63125 7.22031 9.10156 7.66094 8.66094C8.10156 8.22031 8.63125 8 9.25 8H14.5C14.8333 8 15.1185 8.11862 15.3558 8.35587C15.593 8.59312 15.7116 8.87837 15.7116 9.21162V12.5C15.7116 12.8333 15.593 13.1185 15.3558 13.3557C15.1185 13.593 14.8333 13.7116 14.5 13.7116H12.8558V15.5289ZM9.553 18.2116C9.30063 18.2116 9.08606 18.1233 8.90931 17.9465C8.73269 17.7699 8.64438 17.5554 8.64438 17.303V16.4375C8.64438 16.1851 8.73269 15.9706 8.90931 15.794C9.08606 15.6173 9.30063 15.5289 9.553 15.5289H13.1588C13.4112 15.5289 13.6257 15.6173 13.8023 15.794C13.9791 15.9706 14.0674 16.1851 14.0674 16.4375V17.303C14.0674 17.5554 13.9791 17.7699 13.8023 17.9465C13.6257 18.1233 13.4112 18.2116 13.1588 18.2116H9.553ZM12.9713 17.4616H9.39437H13.3174H12.9713Z" fill="white"/>
</svg>
