<svg width="24" height="24" viewBox="0 0 24 24" fill="none" xmlns="http://www.w3.org/2000/svg">
<rect x="0.5" y="0.5" width="23" height="23" rx="11.5" fill="#0F62FE"/>
<rect x="0.5" y="0.5" width="23" height="23" rx="11.5" stroke="white"/>
<path d="M9.34109 14.6595L13.3969 13.3959L14.6605 9.34012L10.6047 10.6037L9.34109 14.6595ZM11.9974 12.6114C11.8265 12.6239 11.6825 12.5686 11.5652 12.4453C11.4478 12.3221 11.3892 12.1724 11.3892 11.9964C11.3892 11.8256 11.449 11.6815 11.5686 11.5642C11.6882 11.4469 11.8334 11.3882 12.0042 11.3882C12.175 11.3882 12.3191 11.448 12.4363 11.5676C12.5537 11.6872 12.6124 11.8324 12.6124 12.0032C12.6124 12.1741 12.5526 12.3181 12.433 12.4354C12.3133 12.5527 12.1682 12.6114 11.9974 12.6114ZM12.0085 18.4498C11.1216 18.4498 10.286 18.2821 9.50178 17.9466C8.71766 17.6111 8.03103 17.1491 7.44191 16.5606C6.85278 15.9721 6.39034 15.2863 6.05459 14.5033C5.71872 13.7204 5.55078 12.8839 5.55078 11.9938C5.55078 11.1036 5.71853 10.2694 6.05403 9.49143C6.38953 8.71355 6.85153 8.03005 7.44003 7.44093C8.02853 6.8518 8.71428 6.38937 9.49728 6.05362C10.2802 5.71774 11.1167 5.5498 12.0068 5.5498C12.897 5.5498 13.7312 5.71756 14.5092 6.05306C15.287 6.38856 15.9705 6.85055 16.5597 7.43905C17.1488 8.02755 17.6112 8.7118 17.947 9.4918C18.2828 10.2718 18.4508 11.1052 18.4508 11.9921C18.4508 12.879 18.283 13.7146 17.9475 14.4988C17.612 15.2829 17.15 15.9696 16.5615 16.5587C15.973 17.1478 15.2888 17.6102 14.5088 17.946C13.7288 18.2819 12.8953 18.4498 12.0085 18.4498ZM12.0051 17.8498C13.6368 17.8498 15.019 17.2821 16.1517 16.1466C17.2844 15.0109 17.8508 13.6272 17.8508 11.9955C17.8508 10.3637 17.283 8.98155 16.1475 7.84893C15.0119 6.71618 13.6282 6.1498 11.9965 6.1498C10.3647 6.1498 8.98253 6.71756 7.84991 7.85306C6.71716 8.98868 6.15078 10.3724 6.15078 12.0041C6.15078 13.6359 6.71853 15.0181 7.85403 16.1507C8.98966 17.2834 10.3733 17.8498 12.0051 17.8498Z" fill="white"/>
</svg>
