<svg width="24" height="25" viewBox="0 0 24 25" fill="none" xmlns="http://www.w3.org/2000/svg">
<rect x="0.5" y="1.2998" width="23" height="23" rx="11.5" fill="#0F62FE"/>
<rect x="0.5" y="1.2998" width="23" height="23" rx="11.5" stroke="white"/>
<path d="M7.12423 10.8123C6.71461 11.2536 6.39586 11.7551 6.16798 12.3166C5.94011 12.8781 5.82617 13.4713 5.82617 14.0963H10.0954C10.23 14.0963 10.3405 14.0531 10.427 13.9666C10.5137 13.8801 10.557 13.7695 10.557 13.6349V9.36552C9.83573 9.36552 9.18573 9.49634 8.60698 9.75796C8.02811 10.0195 7.53386 10.3709 7.12423 10.8123ZM6.28761 16.6349H12.6339C12.7685 16.6349 12.8791 16.5916 12.9656 16.505C13.0521 16.4185 13.0954 16.3079 13.0954 16.1733V9.82715C13.0954 9.69252 13.0521 9.58196 12.9656 9.49546C12.8791 9.40884 12.7685 9.36552 12.6339 9.36552H11.307V13.6349C11.307 13.968 11.1884 14.2532 10.9511 14.4905C10.7139 14.7277 10.4286 14.8463 10.0954 14.8463H5.82617V16.1733C5.82617 16.3079 5.86942 16.4185 5.95592 16.505C6.04255 16.5916 6.15311 16.6349 6.28761 16.6349ZM13.8454 14.2636L17.754 13.8569C17.8694 13.8376 17.9679 13.7848 18.0497 13.6983C18.1314 13.6118 18.1723 13.5108 18.1723 13.3955V12.2502H13.8454V14.2636ZM6.37423 19.1733C6.26798 19.1733 6.17892 19.1373 6.10705 19.0653C6.03517 18.9934 5.99923 18.9042 5.99923 18.7977C5.99923 18.6913 6.03517 18.6023 6.10705 18.5307C6.17892 18.4591 6.26798 18.4233 6.37423 18.4233H12.1867C12.293 18.4233 12.382 18.4593 12.4539 18.5313C12.5258 18.6033 12.5617 18.6925 12.5617 18.7988C12.5617 18.9052 12.5258 18.9942 12.4539 19.0658C12.382 19.1375 12.293 19.1733 12.1867 19.1733H6.37423ZM6.28761 17.3849C5.95448 17.3849 5.6693 17.2663 5.43205 17.029C5.1948 16.7916 5.07617 16.5064 5.07617 16.1733V14.0963C5.07617 12.6328 5.57811 11.3535 6.58198 10.2584C7.58573 9.16315 8.91073 8.61552 10.557 8.61552H12.6339C12.967 8.61552 13.2522 8.73415 13.4895 8.9714C13.7267 9.20877 13.8454 9.49402 13.8454 9.82715V11.5002H17.5089L18.0814 10.2108C18.1151 10.1406 18.1584 10.088 18.2113 10.0529C18.2642 10.0178 18.3305 10.0002 18.4102 10.0002H18.5499C18.6554 10.0002 18.7439 10.0361 18.8152 10.108C18.8866 10.1799 18.9223 10.269 18.9223 10.3752V13.3955C18.9223 13.706 18.8188 13.9771 18.6118 14.2088C18.4049 14.4405 18.145 14.5717 17.832 14.6026L13.8454 15.0136V16.1733C13.8454 16.5064 13.7267 16.7916 13.4895 17.029C13.2522 17.2663 12.967 17.3849 12.6339 17.3849H6.28761ZM6.37423 7.57715C6.26798 7.57715 6.17892 7.54115 6.10705 7.46915C6.03517 7.39715 5.99923 7.30796 5.99923 7.20159C5.99923 7.09521 6.03517 7.00621 6.10705 6.93459C6.17892 6.86296 6.26798 6.82715 6.37423 6.82715H16.6867C16.793 6.82715 16.882 6.86315 16.9539 6.93515C17.0258 7.00702 17.0617 7.09621 17.0617 7.20271C17.0617 7.30909 17.0258 7.39809 16.9539 7.46971C16.882 7.54134 16.793 7.57715 16.6867 7.57715H6.37423Z" fill="white"/>
</svg>
