<svg width="24" height="24" viewBox="0 0 24 24" fill="none" xmlns="http://www.w3.org/2000/svg">
<rect x="0.5" y="0.5" width="23" height="23" rx="11.5" fill="#0F62FE"/>
<rect x="0.5" y="0.5" width="23" height="23" rx="11.5" stroke="white"/>
<path d="M11.9965 18.4498C11.134 18.4498 10.4008 18.1541 9.79691 17.5627C9.19303 16.9712 8.89109 16.2496 8.89109 15.3979V9.04012C8.58347 9.04012 8.32484 8.9368 8.11522 8.73018C7.90559 8.52343 7.80078 8.26812 7.80078 7.96424V6.64012C7.80078 6.33624 7.90653 6.07855 8.11803 5.86705C8.32953 5.65555 8.58722 5.5498 8.89109 5.5498H15.096C15.3999 5.5498 15.66 5.65555 15.8764 5.86705C16.0927 6.07855 16.2008 6.33624 16.2008 6.64012V7.96424C16.2008 8.26812 16.0927 8.52343 15.8764 8.73018C15.66 8.9368 15.3999 9.04012 15.096 9.04012V15.6142C15.0383 16.4179 14.7109 17.0914 14.1139 17.6347C13.5168 18.1781 12.811 18.4498 11.9965 18.4498ZM8.89109 8.44012H15.096C15.2307 8.44012 15.3484 8.39449 15.4493 8.30324C15.5503 8.21187 15.6008 8.09887 15.6008 7.96424V6.64012C15.6008 6.50549 15.5503 6.39012 15.4493 6.29399C15.3484 6.19787 15.2307 6.1498 15.096 6.1498H8.89109C8.75647 6.1498 8.64109 6.19787 8.54497 6.29399C8.44884 6.39012 8.40078 6.50549 8.40078 6.64012V7.96424C8.40078 8.09887 8.44884 8.21187 8.54497 8.30324C8.64109 8.39449 8.75647 8.44012 8.89109 8.44012ZM12.0008 17.8498C12.693 17.8498 13.282 17.6142 13.7676 17.1431C14.2532 16.672 14.496 16.0902 14.496 15.3979V14.8354H12.1017V14.2354H14.496V12.2507H12.1017V11.6507H14.496V9.04012H9.49109V15.3979C9.49109 16.0902 9.73628 16.672 10.2267 17.1431C10.7172 17.6142 11.3085 17.8498 12.0008 17.8498Z" fill="white"/>
</svg>
