<svg width="24" height="25" viewBox="0 0 24 25" fill="none" xmlns="http://www.w3.org/2000/svg">
<rect x="0.5" y="1.2998" width="23" height="23" rx="11.5" fill="#0F62FE"/>
<rect x="0.5" y="1.2998" width="23" height="23" rx="11.5" stroke="white"/>
<path d="M5.62444 17.125C5.51806 17.125 5.42906 17.0891 5.35744 17.0172C5.28581 16.9453 5.25 16.8563 5.25 16.75V9.25C5.25 9.14375 5.286 9.05469 5.358 8.98281C5.43 8.91094 5.51919 8.875 5.62556 8.875C5.73194 8.875 5.82094 8.91094 5.89256 8.98281C5.96419 9.05469 6 9.14375 6 9.25V16.75C6 16.8563 5.964 16.9453 5.892 17.0172C5.82 17.0891 5.73081 17.125 5.62444 17.125ZM17.3235 13.375H8.16338C8.05713 13.375 7.96806 13.339 7.89619 13.267C7.82431 13.195 7.78838 13.1058 7.78838 12.9994C7.78838 12.8931 7.82431 12.8041 7.89619 12.7324C7.96806 12.6608 8.05713 12.625 8.16338 12.625H17.3091L14.5183 9.80088C14.4481 9.73075 14.4146 9.64787 14.418 9.55225C14.4214 9.4565 14.4596 9.37125 14.5328 9.2965C14.5998 9.228 14.685 9.19375 14.7885 9.19375C14.892 9.19375 14.9789 9.22887 15.0491 9.29912L18.3259 12.5759C18.3914 12.6414 18.4373 12.7089 18.4637 12.7784C18.4902 12.8479 18.5034 12.9224 18.5034 13.0019C18.5034 13.0814 18.4902 13.1553 18.4637 13.2235C18.4373 13.2918 18.3914 13.3586 18.3259 13.4241L15.0347 16.7153C14.9668 16.7856 14.8821 16.8207 14.7804 16.8207C14.6787 16.8207 14.5913 16.7856 14.5183 16.7153C14.4356 16.6423 14.3966 16.5531 14.4015 16.4478C14.4063 16.3425 14.4452 16.2534 14.5183 16.1804L17.3235 13.375Z" fill="white"/>
</svg>
