<svg width="24" height="24" viewBox="0 0 24 24" fill="none" xmlns="http://www.w3.org/2000/svg">
<rect x="0.5" y="0.5" width="23" height="23" rx="11.5" fill="#0F62FE"/>
<rect x="0.5" y="0.5" width="23" height="23" rx="11.5" stroke="white"/>
<path d="M8.95895 14.2216C9.09133 14.2216 9.20877 14.1717 9.31127 14.0719C9.41364 13.9722 9.46483 13.8561 9.46483 13.7236C9.46483 13.5912 9.41495 13.4738 9.3152 13.3714C9.21545 13.2689 9.09933 13.2177 8.96683 13.2177C8.83445 13.2177 8.71702 13.2676 8.61452 13.3673C8.51214 13.4672 8.46095 13.5833 8.46095 13.7157C8.46095 13.8482 8.51083 13.9656 8.61058 14.068C8.71033 14.1704 8.82645 14.2216 8.95895 14.2216ZM9.97145 12.1966C10.1038 12.1966 10.2213 12.1467 10.3238 12.0469C10.4261 11.9472 10.4773 11.8311 10.4773 11.6986C10.4773 11.5662 10.4275 11.4488 10.3277 11.3464C10.228 11.2439 10.1118 11.1927 9.97933 11.1927C9.84695 11.1927 9.72952 11.2426 9.62702 11.3423C9.52464 11.4422 9.47345 11.5583 9.47345 11.6907C9.47345 11.8232 9.52333 11.9406 9.62308 12.043C9.72283 12.1454 9.83895 12.1966 9.97145 12.1966ZM9.97145 16.2466C10.1038 16.2466 10.2213 16.1967 10.3238 16.0969C10.4261 15.9972 10.4773 15.8811 10.4773 15.7486C10.4773 15.6162 10.4275 15.4988 10.3277 15.3964C10.228 15.2939 10.1118 15.2427 9.97933 15.2427C9.84695 15.2427 9.72952 15.2926 9.62702 15.3923C9.52464 15.4922 9.47345 15.6083 9.47345 15.7407C9.47345 15.8732 9.52333 15.9906 9.62308 16.093C9.72283 16.1954 9.83895 16.2466 9.97145 16.2466ZM10.984 14.2216C11.1163 14.2216 11.2338 14.1717 11.3363 14.0719C11.4386 13.9722 11.4898 13.8561 11.4898 13.7236C11.4898 13.5912 11.44 13.4738 11.3402 13.3714C11.2405 13.2689 11.1243 13.2177 10.9918 13.2177C10.8595 13.2177 10.742 13.2676 10.6395 13.3673C10.5371 13.4672 10.486 13.5833 10.486 13.7157C10.486 13.8482 10.5358 13.9656 10.6356 14.068C10.7353 14.1704 10.8515 14.2216 10.984 14.2216ZM10.984 10.1716C11.1163 10.1716 11.2338 10.1217 11.3363 10.0219C11.4386 9.92219 11.4898 9.80606 11.4898 9.67356C11.4898 9.54119 11.44 9.42381 11.3402 9.32144C11.2405 9.21894 11.1243 9.16769 10.9918 9.16769C10.8595 9.16769 10.742 9.21756 10.6395 9.31731C10.5371 9.41719 10.486 9.53331 10.486 9.66569C10.486 9.79819 10.5358 9.91563 10.6356 10.018C10.7353 10.1204 10.8515 10.1716 10.984 10.1716ZM11.9965 12.1966C12.1288 12.1966 12.2463 12.1467 12.3488 12.0469C12.4511 11.9472 12.5023 11.8311 12.5023 11.6986C12.5023 11.5662 12.4525 11.4488 12.3527 11.3464C12.253 11.2439 12.1368 11.1927 12.0043 11.1927C11.872 11.1927 11.7545 11.2426 11.652 11.3423C11.5496 11.4422 11.4985 11.5583 11.4985 11.6907C11.4985 11.8232 11.5483 11.9406 11.6481 12.043C11.7478 12.1454 11.864 12.1966 11.9965 12.1966ZM11.9965 16.2466C12.1288 16.2466 12.2463 16.1967 12.3488 16.0969C12.4511 15.9972 12.5023 15.8811 12.5023 15.7486C12.5023 15.6162 12.4525 15.4988 12.3527 15.3964C12.253 15.2939 12.1368 15.2427 12.0043 15.2427C11.872 15.2427 11.7545 15.2926 11.652 15.3923C11.5496 15.4922 11.4985 15.6083 11.4985 15.7407C11.4985 15.8732 11.5483 15.9906 11.6481 16.093C11.7478 16.1954 11.864 16.2466 11.9965 16.2466ZM13.009 14.2216C13.1413 14.2216 13.2588 14.1717 13.3613 14.0719C13.4636 13.9722 13.5148 13.8561 13.5148 13.7236C13.5148 13.5912 13.465 13.4738 13.3652 13.3714C13.2655 13.2689 13.1493 13.2177 13.0168 13.2177C12.8845 13.2177 12.767 13.2676 12.6645 13.3673C12.5621 13.4672 12.511 13.5833 12.511 13.7157C12.511 13.8482 12.5608 13.9656 12.6606 14.068C12.7603 14.1704 12.8765 14.2216 13.009 14.2216ZM13.009 10.1716C13.1413 10.1716 13.2588 10.1217 13.3613 10.0219C13.4636 9.92219 13.5148 9.80606 13.5148 9.67356C13.5148 9.54119 13.465 9.42381 13.3652 9.32144C13.2655 9.21894 13.1493 9.16769 13.0168 9.16769C12.8845 9.16769 12.767 9.21756 12.6645 9.31731C12.5621 9.41719 12.511 9.53331 12.511 9.66569C12.511 9.79819 12.5608 9.91563 12.6606 10.018C12.7603 10.1204 12.8765 10.1716 13.009 10.1716ZM14.0215 12.1966C14.1538 12.1966 14.2713 12.1467 14.3738 12.0469C14.4761 11.9472 14.5273 11.8311 14.5273 11.6986C14.5273 11.5662 14.4775 11.4488 14.3777 11.3464C14.278 11.2439 14.1618 11.1927 14.0293 11.1927C13.897 11.1927 13.7795 11.2426 13.677 11.3423C13.5746 11.4422 13.5235 11.5583 13.5235 11.6907C13.5235 11.8232 13.5733 11.9406 13.6731 12.043C13.7728 12.1454 13.889 12.1966 14.0215 12.1966ZM14.0215 16.2466C14.1538 16.2466 14.2713 16.1967 14.3738 16.0969C14.4761 15.9972 14.5273 15.8811 14.5273 15.7486C14.5273 15.6162 14.4775 15.4988 14.3777 15.3964C14.278 15.2939 14.1618 15.2427 14.0293 15.2427C13.897 15.2427 13.7795 15.2926 13.677 15.3923C13.5746 15.4922 13.5235 15.6083 13.5235 15.7407C13.5235 15.8732 13.5733 15.9906 13.6731 16.093C13.7728 16.1954 13.889 16.2466 14.0215 16.2466ZM15.034 14.2216C15.1663 14.2216 15.2838 14.1717 15.3863 14.0719C15.4886 13.9722 15.5398 13.8561 15.5398 13.7236C15.5398 13.5912 15.49 13.4738 15.3902 13.3714C15.2905 13.2689 15.1743 13.2177 15.0418 13.2177C14.9095 13.2177 14.792 13.2676 14.6895 13.3673C14.5871 13.4672 14.536 13.5833 14.536 13.7157C14.536 13.8482 14.5858 13.9656 14.6856 14.068C14.7853 14.1704 14.9015 14.2216 15.034 14.2216ZM11.9978 18.4504C10.586 18.4504 9.38352 17.9533 8.39027 16.9591C7.39702 15.9649 6.90039 14.7621 6.90039 13.3504C6.90039 12.3111 7.30352 11.1981 8.10977 10.0114C8.91602 8.82494 10.2129 7.41488 12.0004 5.78125C13.8254 7.50238 15.1316 8.94994 15.9191 10.1239C16.7066 11.2981 17.1004 12.3767 17.1004 13.3598C17.1004 14.7652 16.6029 15.9649 15.6079 16.9591C14.6128 17.9533 13.4094 18.4504 11.9978 18.4504ZM12.0004 17.8504C13.2504 17.8504 14.3129 17.4129 15.1879 16.5379C16.0629 15.6629 16.5004 14.6013 16.5004 13.3529C16.5004 12.5013 16.1629 11.5692 15.4879 10.5567C14.8129 9.54419 13.6504 8.21919 12.0004 6.58169C10.3504 8.21919 9.18789 9.54419 8.51289 10.5567C7.83789 11.5692 7.50039 12.5013 7.50039 13.3529C7.50039 14.6013 7.93789 15.6629 8.81289 16.5379C9.68789 17.4129 10.7504 17.8504 12.0004 17.8504Z" fill="white"/>
</svg>
