<svg width="24" height="24" viewBox="0 0 24 24" fill="none" xmlns="http://www.w3.org/2000/svg">
<path d="M12 15.248C11.8923 15.248 11.793 15.2304 11.702 15.1953C11.611 15.1599 11.5218 15.0987 11.4345 15.0115L8.8155 12.3923C8.718 12.2949 8.667 12.1802 8.6625 12.048C8.658 11.916 8.709 11.7948 8.8155 11.6845C8.92567 11.5743 9.0445 11.5182 9.172 11.5162C9.29967 11.5144 9.41858 11.5686 9.52875 11.6787L11.5 13.65V5.5C11.5 5.35767 11.5478 5.23875 11.6433 5.14325C11.7388 5.04775 11.8577 5 12 5C12.1423 5 12.2612 5.04775 12.3567 5.14325C12.4522 5.23875 12.5 5.35767 12.5 5.5V13.65L14.4712 11.6787C14.5686 11.5814 14.6842 11.5305 14.8182 11.526C14.9522 11.5215 15.0743 11.5743 15.1845 11.6845C15.291 11.7948 15.3452 11.9128 15.347 12.0385C15.349 12.1642 15.2948 12.2821 15.1845 12.3923L12.5655 15.0115C12.4782 15.0987 12.389 15.1599 12.298 15.1953C12.207 15.2304 12.1077 15.248 12 15.248ZM6.6155 19C6.15517 19 5.77083 18.8458 5.4625 18.5375C5.15417 18.2292 5 17.8448 5 17.3845V15.4615C5 15.3192 5.04775 15.2003 5.14325 15.1048C5.23875 15.0093 5.35767 14.9615 5.5 14.9615C5.64233 14.9615 5.76125 15.0093 5.85675 15.1048C5.95225 15.2003 6 15.3192 6 15.4615V17.3845C6 17.5385 6.06408 17.6796 6.19225 17.8078C6.32042 17.9359 6.4615 18 6.6155 18H17.3845C17.5385 18 17.6796 17.9359 17.8078 17.8078C17.9359 17.6796 18 17.5385 18 17.3845V15.4615C18 15.3192 18.0477 15.2003 18.1432 15.1048C18.2387 15.0093 18.3577 14.9615 18.5 14.9615C18.6423 14.9615 18.7613 15.0093 18.8568 15.1048C18.9523 15.2003 19 15.3192 19 15.4615V17.3845C19 17.8448 18.8458 18.2292 18.5375 18.5375C18.2292 18.8458 17.8448 19 17.3845 19H6.6155Z" fill="#E3E3E3"/>
</svg>
