<svg width="24" height="24" viewBox="0 0 24 24" fill="none" xmlns="http://www.w3.org/2000/svg">
<path d="M7.077 16.0769C5.949 16.0769 4.9875 15.6794 4.1925 14.8846C3.3975 14.0898 3 13.1285 3 12.0009C3 10.8732 3.3975 9.9116 4.1925 9.1161C4.9875 8.3206 5.949 7.92285 7.077 7.92285H10.1155C10.2572 7.92285 10.3759 7.97085 10.4717 8.06685C10.5676 8.16285 10.6155 8.28177 10.6155 8.4236C10.6155 8.56544 10.5676 8.6841 10.4717 8.7796C10.3759 8.8751 10.2572 8.92285 10.1155 8.92285H7.07475C6.23008 8.92285 5.50642 9.22419 4.90375 9.82685C4.30125 10.4294 4 11.1537 4 11.9999C4 12.846 4.30125 13.5704 4.90375 14.1729C5.50642 14.7755 6.23008 15.0769 7.07475 15.0769H10.1155C10.2572 15.0769 10.3759 15.1248 10.4717 15.2206C10.5676 15.3166 10.6155 15.4355 10.6155 15.5774C10.6155 15.7194 10.5676 15.8381 10.4717 15.9336C10.3759 16.0291 10.2572 16.0769 10.1155 16.0769H7.077ZM9 12.4999C8.85833 12.4999 8.73958 12.4519 8.64375 12.3559C8.54792 12.2599 8.5 12.1409 8.5 11.9991C8.5 11.8573 8.54792 11.7386 8.64375 11.6431C8.73958 11.5476 8.85833 11.4999 9 11.4999H15C15.1417 11.4999 15.2604 11.5479 15.3563 11.6439C15.4521 11.7399 15.5 11.8588 15.5 12.0006C15.5 12.1424 15.4521 12.2611 15.3563 12.3566C15.2604 12.4521 15.1417 12.4999 15 12.4999H9ZM13.8845 16.0769C13.7428 16.0769 13.6241 16.0289 13.5283 15.9329C13.4324 15.8369 13.3845 15.7179 13.3845 15.5761C13.3845 15.4343 13.4324 15.3156 13.5283 15.2201C13.6241 15.1246 13.7428 15.0769 13.8845 15.0769H16.9253C17.7699 15.0769 18.4936 14.7755 19.0962 14.1729C19.6987 13.5704 20 12.846 20 11.9999C20 11.1537 19.6987 10.4294 19.0962 9.82685C18.4936 9.22419 17.7699 8.92285 16.9253 8.92285H13.8845C13.7428 8.92285 13.6241 8.87493 13.5283 8.7791C13.4324 8.6831 13.3845 8.56419 13.3845 8.42235C13.3845 8.28035 13.4324 8.1616 13.5283 8.0661C13.6241 7.9706 13.7428 7.92285 13.8845 7.92285H16.923C18.051 7.92285 19.0125 8.32027 19.8075 9.1151C20.6025 9.90993 21 10.8712 21 11.9989C21 13.1265 20.6025 14.0881 19.8075 14.8836C19.0125 15.6791 18.051 16.0769 16.923 16.0769H13.8845Z" fill="#E3E3E3"/>
</svg>
