<svg width="103" height="43" viewBox="0 0 103 43" fill="none" xmlns="http://www.w3.org/2000/svg">
    <g clip-path="url(#clip0_137_186991)">
    <path d="M45.2853 21.79C45.2853 33.4234 35.7015 42.9979 24.0557 42.9979C12.4103 42.9979 2.82617 33.4228 2.82617 21.79C2.82617 10.1558 12.1861 0.582031 24.0557 0.582031C35.4763 0.582031 45.2853 10.1564 45.2853 21.79Z" fill="#0F3A97"/>
    <path d="M28.8431 32.9522C37.913 36.6834 36.3393 27.2549 31.5045 20.0354C28.7642 15.9454 25.1906 12.5377 22.9366 10.8933C15.4628 5.43863 10.8491 8.74692 16.1266 19.5043C17.833 22.9823 20.0245 25.3298 21.7363 27.5424C23.0435 29.2317 25.5897 30.0775 24.6928 30.8786C23.6819 31.7826 21.2345 27.7959 21.2345 27.7959C19.427 25.6161 17.7041 23.29 15.9284 20.0977C11.8717 12.8069 12.4566 5.36536 19.8 8.60686C26.0319 11.3592 31.9843 19.0787 34.3779 24.5607C35.4831 27.0923 38.4969 37.1076 28.898 33.0583" fill="white"/>
    <path d="M0.640625 28.0771C4.63071 25.4199 8.41375 23.7041 14.8516 21.5776C23.8981 18.589 30.7066 16.5802 39.061 12.3811C42.8005 10.5019 49.2889 6.28752 51.609 2.62402C50.9144 4.04197 48.7623 6.80188 47.7887 8.02233C36.4538 22.2149 12.3095 21.4101 0.799955 28.2237" fill="#F7410A"/>
    <path d="M6.42725 17.7041C10.079 17.7328 9.72078 17.6967 9.76344 17.7396C9.82718 17.7396 12.6793 22.6511 12.6793 22.6938C12.6793 22.7145 12.658 20.9482 12.658 18.739C12.658 18.4839 11.9561 17.7398 11.977 17.7398C13.0193 17.7398 14.3817 17.761 14.3817 17.761C13.8713 18.3564 13.7692 18.3072 13.7649 18.6754C13.7505 19.8582 13.7371 22.0449 13.7649 24.5006C13.7688 24.8687 14.0416 25.011 14.4886 25.6488H11.1468C10.0614 23.8416 8.07239 20.4514 8.08229 20.4613C8.0976 20.4768 8.03944 22.5879 8.10318 24.2883C8.1246 24.8502 8.38007 25.0324 8.84851 25.543C8.84851 25.543 9.38735 25.5286 6.23047 25.564C7.18825 25.0536 7.06096 24.416 7.0606 24.3947C7.02622 22.0449 7.0534 20.0359 7.0534 18.739C7.0534 18.5263 7.039 18.5474 6.37954 17.7396M17.8453 21.3331C18.1519 20.2685 18.4139 19.3172 18.5383 18.6967C18.5593 18.5903 18.3042 18.2077 17.8999 17.8249L17.8713 17.7655C19.8212 17.7718 21.8583 17.7828 21.8583 17.7828C22.3904 19.0794 23.6033 22.715 24.5186 24.9478C24.7606 25.5374 25.1784 25.6492 25.1784 25.6492C23.5184 25.6281 20.4376 25.6425 20.454 25.6281C21.2838 24.8835 21.1774 24.8835 20.8155 23.8001H18.2193C17.6871 25.0329 18.3851 25.6116 18.4744 25.6071C17.8835 25.6377 15.8781 25.6071 15.8781 25.6071C16.9635 24.8412 16.8994 24.6075 16.8994 24.6075C17.1976 23.5468 17.543 22.3846 17.8455 21.3329L18.9108 21.3331L18.4531 22.8H20.5181L19.3686 19.8658L18.9109 21.3327L17.8457 21.3325M35.6812 21.4393C35.9873 20.3751 36.2494 19.4234 36.3738 18.8029C36.3947 18.6967 36.1392 18.3141 35.7351 17.931L35.7064 17.8719C37.6569 17.8782 39.6944 17.889 39.6944 17.889C40.2256 19.186 41.4389 22.8212 42.3538 25.054C42.5956 25.6443 43.0131 25.7554 43.0131 25.7554C41.3541 25.7343 38.2732 25.7487 38.2892 25.7343C39.1192 24.9903 39.0131 24.9903 38.6512 23.9063H36.0544C35.5223 25.1393 36.2199 25.7178 36.3092 25.7136C35.7189 25.7439 33.7129 25.7136 33.7129 25.7136C34.7984 24.9481 34.7348 24.7141 34.7348 24.7141C35.0329 23.653 35.3782 22.4914 35.6812 21.4393H36.7463C36.517 22.1733 36.289 22.9067 36.289 22.9067H38.3529L37.2034 19.9722C37.2034 19.9722 36.9753 20.7055 36.7463 21.4389L35.6812 21.4393ZM32.3238 19.6966C32.2815 18.1861 32.3238 17.6975 32.3238 17.6975C31.6638 18.2293 31.997 18.1614 30.3449 17.8888C25.5841 17.1034 25.2213 21.5478 27.8122 22.5447C29.987 23.3818 30.7573 23.546 30.4297 24.3304C30.3233 24.5864 28.3442 25.5215 26.3011 23.629L26.3427 26.2656C26.5984 26.0026 27.301 25.5215 27.301 25.5215C27.3217 25.5215 29.5155 26.4878 31.4933 25.4791C34.5371 23.9273 33.018 21.4153 29.7697 20.419C27.0665 19.5898 29.6206 17.6548 32.3018 19.7174M24.3535 2.50841C24.3534 2.55424 24.3351 2.59815 24.3028 2.63059C24.2704 2.66303 24.2265 2.68136 24.1807 2.6816C24.1349 2.68132 24.091 2.66297 24.0587 2.63054C24.0263 2.59811 24.0081 2.55422 24.0079 2.50841C24.0079 2.41443 24.0862 2.33594 24.1807 2.33594C24.2264 2.33608 24.2703 2.35428 24.3026 2.38659C24.335 2.41889 24.3533 2.46268 24.3535 2.50841ZM25.5526 5.12646C25.5526 5.24312 25.4557 5.33943 25.3398 5.33943C25.2833 5.3392 25.2293 5.31669 25.1894 5.2768C25.1494 5.23692 25.1269 5.18288 25.1266 5.12646C25.1266 5.01015 25.2227 4.9142 25.3398 4.9142C25.4559 4.9142 25.5526 5.00997 25.5526 5.12646ZM28.6632 9.40513C28.6632 9.52143 28.5678 9.61775 28.4502 9.61775C28.3939 9.61737 28.34 9.59486 28.3002 9.55507C28.2604 9.51528 28.2378 9.46142 28.2374 9.40513C28.2374 9.28847 28.3265 9.19197 28.4437 9.19197C28.5611 9.19233 28.6632 9.28847 28.6632 9.40513ZM23.6622 6.60147C23.662 6.64723 23.6437 6.69106 23.6114 6.72341C23.579 6.75575 23.5351 6.77398 23.4894 6.77412C23.4436 6.77398 23.3997 6.75576 23.3673 6.72343C23.3348 6.6911 23.3165 6.64727 23.3162 6.60147C23.3162 6.50695 23.3945 6.42864 23.4894 6.42864C23.5352 6.42878 23.579 6.44703 23.6114 6.47942C23.6438 6.5118 23.6621 6.55568 23.6622 6.60147ZM25.5255 7.58499C25.5252 7.63066 25.5069 7.67437 25.4746 7.70665C25.4423 7.73892 25.3986 7.75718 25.3529 7.75746C25.3072 7.75723 25.2634 7.739 25.231 7.70672C25.1986 7.67444 25.1803 7.63071 25.1799 7.58499C25.1799 7.49047 25.2582 7.41234 25.3529 7.41234C25.4474 7.41234 25.5255 7.49047 25.5255 7.58499ZM23.1041 4.8339C23.1041 4.95056 23.008 5.04688 22.8913 5.04688C22.7746 5.04688 22.6785 4.9511 22.6785 4.8339C22.6785 4.7176 22.7746 4.6211 22.8913 4.6211C23.008 4.6211 23.1041 4.71724 23.1041 4.8339ZM20.2848 6.54836C20.2848 6.64324 20.2068 6.72119 20.1118 6.72119C20.066 6.72096 20.0222 6.70267 19.9898 6.67031C19.9575 6.63795 19.9392 6.59412 19.9389 6.54836C19.9389 6.45384 20.0171 6.37553 20.1118 6.37553C20.1576 6.37567 20.2015 6.39392 20.2339 6.42629C20.2663 6.45867 20.2846 6.50255 20.2848 6.54836ZM20.7889 6.89348C20.7887 6.93936 20.7704 6.9833 20.7379 7.01574C20.7055 7.04818 20.6616 7.06649 20.6157 7.06668C20.5698 7.06644 20.5259 7.04812 20.4935 7.01569C20.461 6.98326 20.4427 6.93934 20.4425 6.89348C20.4445 6.84892 20.4637 6.80685 20.4959 6.77603C20.5282 6.74521 20.5711 6.72801 20.6157 6.72801C20.6603 6.72801 20.7032 6.74521 20.7354 6.77603C20.7677 6.80685 20.7868 6.84892 20.7889 6.89348ZM21.2948 7.23915C21.2946 7.28498 21.2764 7.32889 21.244 7.36133C21.2116 7.39377 21.1678 7.4121 21.1219 7.41234C21.0761 7.4121 21.0322 7.39377 20.9998 7.36134C20.9674 7.32891 20.9491 7.28499 20.9489 7.23915C20.9489 7.14499 21.0272 7.06686 21.1219 7.06686C21.2168 7.06686 21.2948 7.14481 21.2948 7.23915ZM20.5242 7.90383C20.5238 7.94959 20.5053 7.99333 20.473 8.02565C20.4406 8.05797 20.3968 8.07629 20.351 8.07666C20.3052 8.07643 20.2614 8.05815 20.229 8.0258C20.1965 7.99345 20.1782 7.94963 20.1778 7.90383C20.1778 7.80931 20.256 7.73118 20.351 7.73118C20.4455 7.73118 20.5242 7.80931 20.5242 7.90383ZM16.5066 10.7208C16.5063 10.7666 16.488 10.8104 16.4555 10.8427C16.4231 10.875 16.3792 10.8932 16.3334 10.8933C16.2385 10.8933 16.1604 10.8155 16.1604 10.7208C16.1604 10.6261 16.2387 10.5478 16.3334 10.5478C16.4281 10.5478 16.5066 10.6259 16.5066 10.7208ZM17.2512 11.6248C17.2508 11.6705 17.2325 11.7142 17.2001 11.7466C17.1677 11.7789 17.1239 11.7971 17.0782 11.7974C17.0324 11.7971 16.9886 11.7789 16.9562 11.7466C16.9238 11.7143 16.9054 11.6705 16.905 11.6248C16.905 11.5297 16.9833 11.4519 17.0782 11.4519C17.1731 11.4519 17.2512 11.5297 17.2512 11.6248ZM16.6593 26.2156C16.659 26.2613 16.6407 26.3051 16.6083 26.3375C16.5759 26.3698 16.532 26.388 16.4863 26.3882C16.3914 26.3882 16.3134 26.3101 16.3134 26.2156C16.3134 26.1211 16.3914 26.0426 16.4863 26.0426C16.5813 26.0426 16.6593 26.1211 16.6593 26.2156ZM16.7657 30.2409C16.7657 30.3576 16.6695 30.4537 16.5529 30.4537C16.4362 30.4537 16.3401 30.3581 16.3401 30.2409C16.3401 30.1246 16.4362 30.0285 16.5529 30.0285C16.6092 30.0288 16.6631 30.0512 16.7029 30.091C16.7427 30.1308 16.7653 30.1846 16.7657 30.2409ZM14.4773 32.3027C14.4769 32.3484 14.4586 32.3921 14.4263 32.4243C14.394 32.4566 14.3503 32.4749 14.3046 32.4752C14.2589 32.4749 14.2151 32.4567 14.1827 32.4244C14.1503 32.3921 14.132 32.3484 14.1316 32.3027C14.1316 32.2074 14.2099 32.1297 14.3046 32.1297C14.3991 32.1297 14.4773 32.2073 14.4773 32.3027ZM11.7375 33.1377C11.7371 33.1941 11.7145 33.248 11.6746 33.2879C11.6347 33.3277 11.5807 33.3502 11.5244 33.3505C11.468 33.3503 11.414 33.3278 11.3741 33.2879C11.3342 33.2481 11.3117 33.1941 11.3116 33.1377C11.3116 33.0212 11.4077 32.9249 11.5244 32.9249C11.5807 32.9252 11.6347 32.9477 11.6746 32.9875C11.7145 33.0274 11.7371 33.0813 11.7375 33.1377ZM11.1787 31.2781C11.1787 31.3942 11.0825 31.4904 10.9662 31.4904C10.91 31.4901 10.8561 31.4676 10.8163 31.4279C10.7764 31.3882 10.7539 31.3344 10.7534 31.2781C10.7537 31.2217 10.7762 31.1676 10.816 31.1277C10.8558 31.0878 10.9098 31.0651 10.9662 31.0648C11.0825 31.0653 11.1787 31.1613 11.1787 31.2781ZM10.8598 32.4609C10.8598 32.5558 10.7815 32.6336 10.6868 32.6336C10.5921 32.6336 10.5136 32.5558 10.5136 32.4609C10.5136 32.3668 10.5921 32.2881 10.6868 32.2881C10.7815 32.2881 10.8598 32.3662 10.8598 32.4609ZM8.81089 31.4781C8.8106 31.5238 8.79235 31.5675 8.76007 31.5998C8.72779 31.6321 8.68409 31.6504 8.63842 31.6508C8.59263 31.6506 8.54877 31.6324 8.51635 31.6C8.48393 31.5677 8.46556 31.5239 8.46522 31.4781C8.46522 31.384 8.54336 31.3055 8.63842 31.3055C8.73275 31.3055 8.81089 31.3834 8.81089 31.4781ZM15.9672 34.7996C15.9672 34.8944 15.8957 34.9726 15.8012 34.9726C15.7063 34.9726 15.6214 34.8944 15.6214 34.7996C15.6214 34.705 15.6997 34.6267 15.7942 34.6267C15.8894 34.6267 15.9672 34.7049 15.9672 34.7996ZM18.1226 33.2189C18.1226 33.3355 18.0333 33.432 17.9163 33.432C17.7996 33.432 17.697 33.3361 17.697 33.2189C17.697 33.1026 17.7931 33.0064 17.9098 33.0064C17.9661 33.0067 18.02 33.0292 18.0598 33.0689C18.0996 33.1087 18.1222 33.1626 18.1226 33.2189ZM18.3692 35.2514C18.3692 35.3463 18.2841 35.4248 18.1897 35.4248C18.1439 35.4245 18.0999 35.4062 18.0675 35.3737C18.0351 35.3413 18.0168 35.2973 18.0165 35.2514C18.0165 35.1573 18.0947 35.0792 18.1897 35.0792C18.2841 35.079 18.3692 35.1567 18.3692 35.2514ZM27.2269 33.3107C27.2265 33.3564 27.2083 33.4001 27.176 33.4325C27.1438 33.4648 27.1001 33.4832 27.0544 33.4837C27.0085 33.4834 26.9646 33.4651 26.9322 33.4327C26.8997 33.4004 26.8813 33.3565 26.8808 33.3107C26.8808 33.2158 26.959 33.138 27.0544 33.138C27.1487 33.138 27.2269 33.2158 27.2269 33.3107ZM23.1041 34.7724C23.1039 34.8181 23.0856 34.862 23.0533 34.8943C23.0209 34.9267 22.977 34.9449 22.9313 34.945C22.8855 34.9448 22.8417 34.9265 22.8094 34.8942C22.777 34.8619 22.7587 34.8181 22.7584 34.7724C22.7584 34.6782 22.8368 34.5997 22.9313 34.5997C23.0263 34.5997 23.1041 34.6779 23.1041 34.7724ZM34.1979 36.8734C34.1976 36.9191 34.1792 36.9629 34.1468 36.9952C34.1145 37.0275 34.0707 37.0457 34.0249 37.046C33.9791 37.0458 33.9353 37.0276 33.9028 36.9953C33.8703 36.963 33.8519 36.9192 33.8516 36.8734C33.8516 36.779 33.9301 36.7007 34.0249 36.7007C34.1194 36.7007 34.1979 36.7787 34.1979 36.8734ZM35.1015 28.7C35.1012 28.7564 35.0786 28.8105 35.0387 28.8503C34.9988 28.8902 34.9448 28.9127 34.8884 28.913C34.832 28.9127 34.778 28.8901 34.7381 28.8503C34.6983 28.8104 34.6757 28.7564 34.6754 28.7C34.6754 28.5834 34.7713 28.4871 34.8884 28.4871C34.9448 28.4873 34.9989 28.5098 35.0388 28.5497C35.0787 28.5896 35.1012 28.6436 35.1015 28.7ZM33.4002 29.8558C33.3999 29.9017 33.3815 29.9456 33.349 29.9779C33.3166 30.0103 33.2727 30.0286 33.2268 30.0289C33.1325 30.0289 33.0542 29.9505 33.0542 29.8558C33.0542 29.7611 33.1325 29.6834 33.2268 29.6834C33.3219 29.6834 33.4002 29.761 33.4002 29.8558ZM35.0767 30.1889C35.0767 30.3054 34.9807 30.4021 34.8635 30.4021C34.7463 30.4021 34.6504 30.3059 34.6504 30.1889C34.6504 30.0726 34.7463 29.9761 34.8635 29.9761C34.9807 29.9761 35.0767 30.0726 35.0767 30.1889ZM33.4002 32.2485C33.3999 32.2943 33.3815 32.3381 33.349 32.3705C33.3166 32.4028 33.2727 32.421 33.2268 32.4211C33.1812 32.4208 33.1374 32.4025 33.1051 32.3702C33.0728 32.3379 33.0545 32.2942 33.0542 32.2485C33.0542 32.1536 33.1325 32.0755 33.2268 32.0755C33.3219 32.0755 33.4002 32.1534 33.4002 32.2485ZM37.7354 27.5442C37.7354 27.6386 37.6567 27.717 37.5624 27.717C37.5167 27.7167 37.473 27.6983 37.4407 27.666C37.4084 27.6337 37.3901 27.5899 37.3898 27.5442C37.3898 27.4495 37.4679 27.3717 37.5624 27.3717C37.6569 27.3717 37.7354 27.4495 37.7354 27.5442ZM38.1549 28.5938C38.1549 28.7103 38.0661 28.8068 37.9489 28.8068C37.8321 28.8068 37.7293 28.7108 37.7293 28.5938C37.7293 28.4771 37.8253 28.3812 37.9419 28.3812C38.0589 28.3816 38.1549 28.4771 38.1549 28.5938ZM41.1417 29.8432C41.1417 29.9597 41.0466 30.056 40.9287 30.056C40.8723 30.0559 40.8182 30.0334 40.7783 29.9935C40.7384 29.9537 40.7158 29.8997 40.7155 29.8432C40.7158 29.7868 40.7384 29.7328 40.7783 29.6929C40.8182 29.6531 40.8723 29.6305 40.9287 29.6303C40.9851 29.6305 41.0392 29.653 41.0791 29.6929C41.119 29.7328 41.1415 29.7868 41.1417 29.8432ZM38.1079 32.0632C38.1075 32.109 38.0891 32.1528 38.0566 32.1851C38.0242 32.2174 37.9803 32.2357 37.9345 32.2359C37.8888 32.2357 37.845 32.2174 37.8126 32.1851C37.7802 32.1528 37.7619 32.109 37.7615 32.0632C37.7615 31.9684 37.84 31.8902 37.9345 31.8902C38.0291 31.8902 38.1079 31.9678 38.1079 32.0632ZM40.0236 30.2555C40.0234 30.3012 40.0051 30.345 39.9728 30.3773C39.9405 30.4097 39.8967 30.4279 39.851 30.4282C39.8053 30.4279 39.7615 30.4096 39.7292 30.3773C39.6968 30.345 39.6785 30.3012 39.6782 30.2555C39.6782 30.1612 39.7568 30.0827 39.851 30.0827C39.9455 30.0827 40.0236 30.1606 40.0236 30.2555ZM39.6708 33.046C39.6705 33.0918 39.6523 33.1355 39.6199 33.1679C39.5876 33.2002 39.5438 33.2185 39.4981 33.2187C39.4523 33.2186 39.4084 33.2004 39.3759 33.1681C39.3434 33.1357 39.325 33.0919 39.3248 33.046C39.3248 32.9519 39.4029 32.8732 39.4981 32.8732C39.5926 32.8732 39.6708 32.9513 39.6708 33.046ZM40.4827 28.4084C40.4827 28.5544 40.3625 28.6741 40.2165 28.6741C40.0706 28.6741 39.9505 28.5544 39.9505 28.4084C39.9505 28.2625 40.0706 28.1428 40.2165 28.1428C40.3625 28.1428 40.4827 28.2625 40.4827 28.4084Z" fill="white"/>
    <path d="M40.2187 27.5986L40.1397 28.3294L39.4147 28.4093L40.146 28.4885L40.2259 29.2463L40.3059 28.4885L41.0238 28.3953L40.2994 28.3288L40.2187 27.5986ZM38.6222 33.0319C38.6222 33.178 38.5021 33.2981 38.3561 33.2981C38.2856 33.2978 38.218 33.2697 38.1681 33.2198C38.1183 33.17 38.0901 33.1024 38.0898 33.0319C38.0898 32.886 38.2101 32.7663 38.3561 32.7663C38.4265 32.7666 38.4939 32.7946 38.5438 32.8444C38.5936 32.8941 38.6218 32.9615 38.6222 33.0319Z" fill="white"/>
    <path d="M38.3589 32.2205L38.2789 32.9516L37.5543 33.031L38.2856 33.1109L38.3657 33.8679L38.4457 33.1109L39.1633 33.0176L38.4383 32.951L38.3589 32.2205ZM18.7783 11.0784C18.7783 11.2242 18.6582 11.3441 18.5124 11.3441C18.4419 11.3439 18.3744 11.3159 18.3245 11.2661C18.2746 11.2164 18.2464 11.1489 18.2461 11.0784C18.2461 10.9322 18.366 10.8125 18.5124 10.8125C18.6582 10.8129 18.7783 10.9326 18.7783 11.0784Z" fill="white"/>
    <path d="M18.5102 10.2697L18.4303 11.0005L17.7051 11.0804L18.4367 11.1595L18.5167 11.9176L18.5962 11.1595L19.3146 11.0669L18.5894 11.0001L18.5102 10.2697ZM28.6729 4.64908C28.6729 4.79491 28.5526 4.91499 28.4066 4.91499C28.2606 4.91499 28.1409 4.79491 28.1409 4.64908C28.1409 4.50289 28.2604 4.38281 28.4066 4.38281C28.5528 4.38281 28.6729 4.50325 28.6729 4.64908Z" fill="white"/>
    <path d="M28.4067 3.83691L28.3275 4.56821L27.6027 4.64814L28.3342 4.72754L28.4134 5.48512L28.4933 4.72754L29.2113 4.63428L28.4863 4.56785L28.4067 3.83691ZM16.6416 37.2859C16.6416 37.432 16.5215 37.5518 16.3756 37.5518C16.3052 37.5515 16.2376 37.5235 16.1878 37.4736C16.1379 37.4238 16.1097 37.3563 16.1094 37.2859C16.1094 37.1402 16.2295 37.0198 16.3756 37.0198C16.5215 37.02 16.6416 37.1404 16.6416 37.2859Z" fill="white"/>
    <path d="M16.3807 36.4736L16.3012 37.2049L15.5762 37.2845L16.3076 37.3639L16.3874 38.1215L16.467 37.3639L17.1853 37.271L16.4605 37.2044L16.3807 36.4736Z" fill="white"/>
    <path d="M51.6086 2.62402C48.3732 12.222 35.4128 19.6334 24.5028 26.7084C17.9209 30.9782 11.3862 35.8926 6.88757 40.074C5.70187 41.1767 7.12918 39.6616 6.67477 40.1273C12.9529 32.8988 20.1748 28.5931 24.1656 25.8827C30.9148 21.2974 34.7537 20.1418 46.3979 9.41632" fill="#F7410A"/>
    <path d="M3.33773 26.4023C2.17579 26.9703 1.13502 27.5319 0.251953 28.0801L0.789173 28.2756C1.56152 27.8001 2.48869 27.3041 3.46537 26.8672M9.47182 37.143C8.36637 38.1069 7.2792 39.0916 6.21088 40.0966L6.16227 40.8295C7.17046 39.7905 8.40891 38.6695 9.83819 37.4794" fill="#EE293D"/>
    <path d="M28.8455 32.9523C37.9154 36.6835 36.3417 27.2549 31.5069 20.0354C28.7664 15.9454 25.3872 12.7008 22.9388 10.8933C20.0798 8.78241 19.8008 8.60742 19.8008 8.60742C26.1851 11.6376 31.9851 19.0791 34.3783 24.5614C35.4839 27.0929 38.4974 37.1082 28.8984 33.0588" fill="white"/>
    </g>
    <path fill-rule="evenodd" clip-rule="evenodd" d="M65.8892 13.0303V24.1414C66.0134 24.9484 65.765 25.3209 63.9651 25.6313H53.1641L56.0815 28.4245H64.6476C68.4962 28.3003 69.1791 26.3138 69.4892 24.1414V13.0303H65.8892ZM90.2844 13.0303V24.1414C90.16 24.9484 90.4083 25.3209 92.2083 25.6313H103.01L100.092 28.4245H91.5257C87.6772 28.3003 86.9943 26.3138 86.6842 24.1414V13.0303H90.2844ZM85.8769 15.7614V19.4237C85.8769 20.9136 84.387 21.7827 83.1455 21.9066H77.9936L75.0762 19.6721H81.1593C81.8419 19.61 82.4629 19.2996 82.587 18.617V16.8788C82.4626 15.9477 81.9045 15.6373 80.7865 15.7614H73.8967V28.1762H70.2965V13.1544H82.0283C84.5115 13.2786 85.753 14.2716 85.8769 15.7614Z" fill="#CC2229"/>
    <defs>
    <clipPath id="clip0_137_186991">
    <rect width="51.3556" height="42.4197" fill="white" transform="translate(0.251953 0.580078)"/>
    </clipPath>
    </defs>
    </svg>
    