<svg width="103" height="43" viewBox="0 0 103 43" fill="none" xmlns="http://www.w3.org/2000/svg">
<g clip-path="url(#clip0_145_187512)">
<path d="M45.0333 21.2099C45.0333 32.8433 35.4496 42.4178 23.8038 42.4178C12.1583 42.4178 2.57422 32.8427 2.57422 21.2099C2.57422 9.57577 11.9342 0.00195312 23.8038 0.00195312C35.2244 0.00195312 45.0333 9.57631 45.0333 21.2099Z" fill="#0F3A97"/>
<path d="M28.5911 32.3722C37.6611 36.1034 36.0874 26.6748 31.2526 19.4553C28.5123 15.3653 24.9386 11.9576 22.6846 10.3132C15.2109 4.85855 10.5972 8.16685 15.8747 18.9242C17.581 22.4023 19.7726 24.7497 21.4843 26.9623C22.7916 28.6516 25.3378 29.4974 24.4408 30.2985C23.43 31.2025 20.9826 27.2158 20.9826 27.2158C19.175 25.036 17.4521 22.7099 15.6765 19.5176C11.6198 12.2268 12.2047 4.78528 19.5481 8.02678C25.7799 10.7791 31.7324 18.4986 34.1259 23.9806C35.2311 26.5123 38.2449 36.5275 28.6461 32.4782" fill="white"/>
<path d="M0.388672 27.4971C4.37875 24.8398 8.16179 23.1241 14.5996 20.9975C23.6461 18.0089 30.4546 16.0001 38.8091 11.801C42.5485 9.92185 49.0369 5.70745 51.357 2.04395C50.6625 3.46189 48.5103 6.2218 47.5367 7.44225C36.2018 21.6348 12.0575 20.8301 0.548001 27.6436" fill="#F7410A"/>
<path d="M6.17529 17.1241C9.82709 17.1527 9.46882 17.1167 9.51149 17.1595C9.57522 17.1595 12.4273 22.071 12.4273 22.1137C12.4273 22.1344 12.4061 20.3681 12.4061 18.1589C12.4061 17.9038 11.7041 17.1597 11.725 17.1597C12.7674 17.1597 14.1297 17.1809 14.1297 17.1809C13.6193 17.7763 13.5172 17.7272 13.5129 18.0953C13.4985 19.2782 13.4852 21.4648 13.5129 23.9205C13.5169 24.2887 13.7896 24.4309 14.2366 25.0687H10.8949C9.80945 23.2616 7.82044 19.8714 7.83034 19.8813C7.84564 19.8967 7.78749 22.0078 7.85122 23.7082C7.87265 24.2701 8.12811 24.4523 8.59656 24.9629C8.59656 24.9629 9.1354 24.9485 5.97852 24.9839C6.93629 24.4736 6.80901 23.8359 6.80865 23.8146C6.77426 21.4648 6.80145 19.4558 6.80145 18.1589C6.80145 17.9463 6.78705 17.9673 6.12758 17.1595M17.5934 20.753C17.9 19.6884 18.1619 18.7372 18.2863 18.1166C18.3074 18.0102 18.0523 17.6276 17.6479 17.2449L17.6193 17.1854C19.5692 17.1917 21.6063 17.2027 21.6063 17.2027C22.1385 18.4993 23.3514 22.1349 24.2667 24.3677C24.5086 24.9573 24.9265 25.0691 24.9265 25.0691C23.2664 25.048 20.1857 25.0624 20.2021 25.048C21.0318 24.3034 20.9254 24.3034 20.5636 23.22H17.9673C17.4351 24.4529 18.1331 25.0315 18.2224 25.027C17.6315 25.0576 15.6261 25.027 15.6261 25.027C16.7116 24.2611 16.6475 24.0274 16.6475 24.0274C16.9456 22.9667 17.2909 21.8047 17.5934 20.753H18.6588L18.2012 22.2199H20.2661L19.1166 19.2857L18.6588 20.753H17.5934ZM35.4293 20.8592C35.7353 19.795 35.9975 18.8434 36.1219 18.2228C36.1428 18.1166 35.8873 17.734 35.4831 17.3509L35.4545 17.2918C37.405 17.2981 39.4424 17.3089 39.4424 17.3089C39.9737 18.6059 41.1869 22.2411 42.1019 24.4739C42.3436 25.0642 42.7611 25.1753 42.7611 25.1753C41.1021 25.1543 38.0212 25.1687 38.0372 25.1543C38.8672 24.4102 38.7612 24.4102 38.3993 23.3262H35.8025C35.2703 24.5593 35.9679 25.1377 36.0572 25.1336C35.4669 25.1638 33.461 25.1336 33.461 25.1336C34.5464 24.3681 34.4828 24.134 34.4828 24.134C34.781 23.0729 35.1263 21.9113 35.4293 20.8592H36.4944C36.265 21.5932 36.0371 22.3267 36.0371 22.3267H38.101L36.9515 19.3921C36.9515 19.3921 36.7234 20.1257 36.4944 20.8592H35.4293ZM32.0718 19.1165C32.0295 17.606 32.0718 17.1174 32.0718 17.1174C31.4118 17.6492 31.7451 17.5813 30.0929 17.3088C25.3321 16.5233 24.9693 20.9678 27.5602 21.9646C29.735 22.8018 30.5054 22.966 30.1777 23.7504C30.0713 24.0064 28.0922 24.9415 26.0492 23.049L26.0908 25.6855C26.3464 25.4225 27.0491 24.9415 27.0491 24.9415C27.0698 24.9415 29.2635 25.9077 31.2413 24.899C34.2852 23.3473 32.766 20.8353 29.5177 19.839C26.8145 19.0097 29.3686 17.0747 32.0499 19.1374M24.1016 1.92833C24.1014 1.97416 24.0832 2.01807 24.0508 2.05051C24.0185 2.08295 23.9746 2.10129 23.9287 2.10152C23.8829 2.10124 23.8391 2.08289 23.8067 2.05046C23.7744 2.01803 23.7561 1.97414 23.7559 1.92833C23.7559 1.83435 23.8342 1.75586 23.9287 1.75586C23.9745 1.756 24.0183 1.77421 24.0507 1.80651C24.083 1.83881 24.1013 1.8826 24.1016 1.92833ZM25.3006 4.54638C25.3006 4.66304 25.2037 4.75936 25.0878 4.75936C25.0314 4.75912 24.9773 4.73661 24.9374 4.69673C24.8975 4.65684 24.8749 4.60281 24.8746 4.54638C24.8746 4.43008 24.9708 4.33412 25.0878 4.33412C25.2039 4.33412 25.3006 4.4299 25.3006 4.54638ZM28.4112 8.82505C28.4112 8.94135 28.3158 9.03767 28.1982 9.03767C28.1419 9.03729 28.0881 9.01478 28.0482 8.97499C28.0084 8.9352 27.9859 8.88134 27.9854 8.82505C27.9854 8.70839 28.0746 8.61189 28.1918 8.61189C28.3091 8.61225 28.4112 8.70839 28.4112 8.82505ZM23.4103 6.02139C23.4101 6.06715 23.3918 6.11099 23.3594 6.14333C23.327 6.17567 23.2832 6.1939 23.2374 6.19404C23.1916 6.1939 23.1477 6.17568 23.1153 6.14335C23.0829 6.11102 23.0645 6.06719 23.0642 6.02139C23.0642 5.92687 23.1425 5.84856 23.2374 5.84856C23.2832 5.8487 23.3271 5.86696 23.3595 5.89934C23.3919 5.93172 23.4101 5.9756 23.4103 6.02139ZM25.2736 7.00491C25.2733 7.05059 25.255 7.09429 25.2227 7.12657C25.1903 7.15885 25.1466 7.1771 25.1009 7.17739C25.0552 7.17715 25.0114 7.15892 24.9791 7.12664C24.9467 7.09436 24.9283 7.05063 24.9279 7.00491C24.9279 6.9104 25.0062 6.83226 25.1009 6.83226C25.1955 6.83226 25.2736 6.9104 25.2736 7.00491ZM22.8521 4.25382C22.8521 4.37048 22.756 4.4668 22.6393 4.4668C22.5227 4.4668 22.4265 4.37103 22.4265 4.25382C22.4265 4.13752 22.5227 4.04102 22.6393 4.04102C22.756 4.04102 22.8521 4.13716 22.8521 4.25382ZM20.0328 5.96828C20.0328 6.06316 19.9549 6.14111 19.8598 6.14111C19.814 6.14088 19.7702 6.12259 19.7379 6.09023C19.7055 6.05787 19.6872 6.01405 19.687 5.96828C19.687 5.87376 19.7651 5.79545 19.8598 5.79545C19.9056 5.79559 19.9495 5.81384 19.9819 5.84622C20.0143 5.87859 20.0326 5.92247 20.0328 5.96828ZM20.5369 6.31341C20.5367 6.35928 20.5184 6.40322 20.486 6.43566C20.4535 6.4681 20.4096 6.48641 20.3637 6.4866C20.3179 6.48636 20.2739 6.46804 20.2415 6.43561C20.2091 6.40318 20.1908 6.35927 20.1905 6.31341C20.1926 6.26884 20.2117 6.22677 20.244 6.19595C20.2762 6.16513 20.3191 6.14793 20.3637 6.14793C20.4083 6.14793 20.4512 6.16513 20.4835 6.19595C20.5158 6.22677 20.5349 6.26884 20.5369 6.31341ZM21.0428 6.65907C21.0427 6.7049 21.0244 6.74881 20.9921 6.78125C20.9597 6.81369 20.9158 6.83202 20.87 6.83226C20.8241 6.83203 20.7802 6.8137 20.7478 6.78126C20.7154 6.74883 20.6972 6.70491 20.697 6.65907C20.697 6.56491 20.7753 6.48678 20.87 6.48678C20.9649 6.48678 21.0428 6.56473 21.0428 6.65907ZM20.2723 7.32375C20.2718 7.36951 20.2534 7.41325 20.221 7.44557C20.1886 7.47789 20.1448 7.49621 20.0991 7.49658C20.0533 7.49635 20.0094 7.47808 19.977 7.44572C19.9446 7.41337 19.9262 7.36955 19.9259 7.32375C19.9259 7.22924 20.004 7.1511 20.0991 7.1511C20.1936 7.1511 20.2723 7.22924 20.2723 7.32375ZM16.2546 10.1407C16.2544 10.1865 16.236 10.2303 16.2036 10.2626C16.1711 10.2949 16.1272 10.3131 16.0815 10.3132C15.9866 10.3132 15.9084 10.2354 15.9084 10.1407C15.9084 10.046 15.9868 9.96772 16.0815 9.96772C16.1761 9.96772 16.2546 10.0459 16.2546 10.1407ZM16.9993 11.0447C16.9989 11.0904 16.9805 11.1342 16.9481 11.1665C16.9158 11.1988 16.872 11.2171 16.8262 11.2173C16.7805 11.2171 16.7367 11.1988 16.7043 11.1665C16.6719 11.1342 16.6535 11.0904 16.6531 11.0447C16.6531 10.9496 16.7314 10.8719 16.8262 10.8719C16.9211 10.8719 16.9993 10.9496 16.9993 11.0447ZM16.4073 25.6355C16.407 25.6813 16.3887 25.7251 16.3563 25.7574C16.3239 25.7897 16.2801 25.808 16.2343 25.8081C16.1394 25.8081 16.0615 25.73 16.0615 25.6355C16.0615 25.541 16.1394 25.4625 16.2343 25.4625C16.3294 25.4625 16.4073 25.541 16.4073 25.6355ZM16.5137 29.6609C16.5137 29.7775 16.4176 29.8737 16.3009 29.8737C16.1842 29.8737 16.0881 29.7781 16.0881 29.6609C16.0881 29.5446 16.1842 29.4484 16.3009 29.4484C16.3572 29.4487 16.4111 29.4712 16.4509 29.5109C16.4908 29.5507 16.5133 29.6046 16.5137 29.6609ZM14.2253 31.7226C14.225 31.7683 14.2067 31.812 14.1744 31.8443C14.142 31.8765 14.0983 31.8948 14.0527 31.8951C14.0069 31.8948 13.9631 31.8766 13.9308 31.8443C13.8984 31.812 13.88 31.7683 13.8796 31.7226C13.8796 31.6274 13.958 31.5496 14.0527 31.5496C14.1472 31.5496 14.2253 31.6272 14.2253 31.7226ZM11.4856 32.5576C11.4852 32.614 11.4626 32.6679 11.4227 32.7078C11.3828 32.7476 11.3288 32.7701 11.2724 32.7704C11.216 32.7702 11.162 32.7477 11.1221 32.7079C11.0823 32.668 11.0598 32.614 11.0596 32.5576C11.0596 32.4411 11.1557 32.3448 11.2724 32.3448C11.3288 32.3451 11.3827 32.3676 11.4226 32.4075C11.4625 32.4473 11.4851 32.5012 11.4856 32.5576ZM10.9267 30.698C10.9267 30.8142 10.8306 30.9103 10.7143 30.9103C10.658 30.91 10.6042 30.8876 10.5643 30.8478C10.5245 30.8081 10.5019 30.7543 10.5015 30.698C10.5017 30.6416 10.5242 30.5876 10.5641 30.5476C10.6039 30.5077 10.6579 30.4851 10.7143 30.4847C10.8306 30.4852 10.9267 30.5812 10.9267 30.698ZM10.6079 31.8809C10.6079 31.9757 10.5296 32.0535 10.4349 32.0535C10.3402 32.0535 10.2617 31.9757 10.2617 31.8809C10.2617 31.7867 10.3402 31.708 10.4349 31.708C10.5296 31.708 10.6079 31.7862 10.6079 31.8809ZM8.55893 30.898C8.55865 30.9437 8.5404 30.9874 8.50812 31.0198C8.47584 31.0521 8.43213 31.0704 8.38646 31.0707C8.34068 31.0705 8.29682 31.0523 8.2644 31.02C8.23197 30.9876 8.2136 30.9438 8.21327 30.898C8.21327 30.8039 8.2914 30.7254 8.38646 30.7254C8.4808 30.7254 8.55893 30.8034 8.55893 30.898ZM15.7153 34.2195C15.7153 34.3144 15.6438 34.3925 15.5493 34.3925C15.4544 34.3925 15.3694 34.3144 15.3694 34.2195C15.3694 34.125 15.4477 34.0467 15.5423 34.0467C15.6375 34.0467 15.7153 34.1248 15.7153 34.2195ZM17.8706 32.6388C17.8706 32.7555 17.7813 32.852 17.6643 32.852C17.5476 32.852 17.445 32.756 17.445 32.6388C17.445 32.5225 17.5412 32.4264 17.6578 32.4264C17.7141 32.4266 17.768 32.4491 17.8079 32.4889C17.8477 32.5286 17.8702 32.5825 17.8706 32.6388ZM18.1173 34.6714C18.1173 34.7662 18.0321 34.8447 17.9378 34.8447C17.8919 34.8445 17.848 34.8261 17.8156 34.7936C17.7831 34.7612 17.7648 34.7172 17.7646 34.6714C17.7646 34.5772 17.8427 34.4991 17.9378 34.4991C18.0321 34.4989 18.1173 34.5767 18.1173 34.6714ZM26.9749 32.7306C26.9746 32.7763 26.9563 32.82 26.9241 32.8524C26.8918 32.8848 26.8481 32.9032 26.8024 32.9036C26.7566 32.9033 26.7127 32.885 26.6802 32.8527C26.6478 32.8203 26.6293 32.7765 26.6289 32.7306C26.6289 32.6357 26.707 32.558 26.8024 32.558C26.8968 32.558 26.9749 32.6357 26.9749 32.7306ZM22.8521 34.1923C22.852 34.2381 22.8337 34.2819 22.8013 34.3142C22.7689 34.3466 22.7251 34.3648 22.6793 34.365C22.6336 34.3647 22.5898 34.3465 22.5574 34.3141C22.5251 34.2818 22.5068 34.238 22.5065 34.1923C22.5065 34.0981 22.5848 34.0196 22.6793 34.0196C22.7744 34.0196 22.8521 34.0978 22.8521 34.1923ZM33.946 36.2933C33.9456 36.339 33.9273 36.3828 33.8949 36.4151C33.8625 36.4474 33.8187 36.4657 33.773 36.4659C33.7272 36.4658 33.6833 36.4475 33.6508 36.4152C33.6184 36.3829 33.6 36.3391 33.5996 36.2933C33.5996 36.199 33.6781 36.1206 33.773 36.1206C33.8675 36.1206 33.946 36.1986 33.946 36.2933ZM34.8496 28.12C34.8492 28.1764 34.8267 28.2304 34.7868 28.2702C34.7469 28.3101 34.6928 28.3326 34.6364 28.3329C34.58 28.3326 34.5261 28.3101 34.4862 28.2702C34.4463 28.2303 34.4238 28.1763 34.4234 28.12C34.4234 28.0033 34.5194 27.907 34.6364 27.907C34.6928 27.9072 34.7469 27.9297 34.7868 27.9696C34.8267 28.0095 34.8493 28.0635 34.8496 28.12ZM33.1483 29.2758C33.1479 29.3216 33.1295 29.3655 33.0971 29.3979C33.0646 29.4303 33.0207 29.4485 32.9749 29.4488C32.8805 29.4488 32.8022 29.3705 32.8022 29.2758C32.8022 29.1811 32.8805 29.1033 32.9749 29.1033C33.0699 29.1033 33.1483 29.1809 33.1483 29.2758ZM34.8247 29.6088C34.8247 29.7253 34.7288 29.822 34.6116 29.822C34.4944 29.822 34.3984 29.7258 34.3984 29.6088C34.3984 29.4925 34.4944 29.396 34.6116 29.396C34.7288 29.396 34.8247 29.4925 34.8247 29.6088ZM33.1483 31.6684C33.1479 31.7142 33.1295 31.7581 33.0971 31.7904C33.0646 31.8227 33.0207 31.8409 32.9749 31.8411C32.9292 31.8407 32.8855 31.8224 32.8532 31.7901C32.8209 31.7578 32.8026 31.7141 32.8022 31.6684C32.8022 31.5735 32.8805 31.4954 32.9749 31.4954C33.0699 31.4954 33.1483 31.5734 33.1483 31.6684ZM37.4835 26.9641C37.4835 27.0585 37.4048 27.137 37.3104 27.137C37.2647 27.1366 37.221 27.1183 37.1887 27.0859C37.1564 27.0536 37.1381 27.0098 37.1378 26.9641C37.1378 26.8694 37.2159 26.7917 37.3104 26.7917C37.405 26.7917 37.4835 26.8694 37.4835 26.9641ZM37.9029 28.0137C37.9029 28.1302 37.8142 28.2267 37.697 28.2267C37.5801 28.2267 37.4773 28.1308 37.4773 28.0137C37.4773 27.8971 37.5733 27.8011 37.69 27.8011C37.807 27.8015 37.9029 27.8971 37.9029 28.0137ZM40.8897 29.2632C40.8897 29.3796 40.7946 29.476 40.6767 29.476C40.6203 29.4758 40.5663 29.4533 40.5263 29.4134C40.4864 29.3736 40.4638 29.3196 40.4636 29.2632C40.4639 29.2067 40.4865 29.1527 40.5264 29.1129C40.5663 29.073 40.6203 29.0505 40.6767 29.0502C40.7331 29.0504 40.7872 29.0729 40.8271 29.1128C40.867 29.1527 40.8895 29.2067 40.8897 29.2632ZM37.856 31.4832C37.8555 31.5289 37.8371 31.5727 37.8047 31.605C37.7722 31.6373 37.7284 31.6556 37.6826 31.6558C37.6368 31.6556 37.593 31.6373 37.5606 31.605C37.5282 31.5727 37.5099 31.5289 37.5096 31.4832C37.5096 31.3883 37.5881 31.3101 37.6826 31.3101C37.7771 31.3101 37.856 31.3877 37.856 31.4832ZM39.7717 29.6754C39.7715 29.7212 39.7532 29.7649 39.7209 29.7973C39.6885 29.8296 39.6448 29.8479 39.599 29.8481C39.5533 29.8478 39.5095 29.8295 39.4772 29.7972C39.4449 29.7649 39.4265 29.7212 39.4262 29.6754C39.4262 29.5811 39.5049 29.5026 39.599 29.5026C39.6936 29.5026 39.7717 29.5806 39.7717 29.6754ZM39.4188 32.466C39.4186 32.5117 39.4003 32.5555 39.368 32.5878C39.3357 32.6201 39.2919 32.6384 39.2462 32.6386C39.2003 32.6385 39.1564 32.6203 39.1239 32.588C39.0915 32.5556 39.0731 32.5118 39.0728 32.466C39.0728 32.3718 39.1509 32.2931 39.2462 32.2931C39.3407 32.2931 39.4188 32.3713 39.4188 32.466ZM40.2308 27.8283C40.2308 27.9743 40.1105 28.094 39.9645 28.094C39.8187 28.094 39.6986 27.9743 39.6986 27.8283C39.6986 27.6825 39.8187 27.5627 39.9645 27.5627C40.1105 27.5627 40.2308 27.6825 40.2308 27.8283Z" fill="white"/>
<path d="M39.9668 27.0186L39.8878 27.7493L39.1628 27.8292L39.8941 27.9085L39.974 28.6662L40.0539 27.9085L40.7719 27.8152L40.0474 27.7488L39.9668 27.0186ZM38.3702 32.4518C38.3702 32.598 38.2502 32.7181 38.1042 32.7181C38.0336 32.7178 37.9661 32.6896 37.9162 32.6398C37.8663 32.5899 37.8382 32.5223 37.8379 32.4518C37.8379 32.306 37.9582 32.1862 38.1042 32.1862C38.1745 32.1865 38.242 32.2146 38.2918 32.2643C38.3416 32.314 38.3698 32.3814 38.3702 32.4518Z" fill="white"/>
<path d="M38.1069 31.6404L38.027 32.3715L37.3024 32.4509L38.0337 32.5308L38.1138 33.2879L38.1937 32.5308L38.9113 32.4376L38.1863 32.3709L38.1069 31.6404ZM18.5263 10.4983C18.5263 10.6442 18.4062 10.7641 18.2604 10.7641C18.1899 10.7639 18.1224 10.7358 18.0725 10.6861C18.0227 10.6363 17.9945 10.5688 17.9941 10.4983C17.9941 10.3521 18.114 10.2324 18.2604 10.2324C18.4062 10.2328 18.5263 10.3525 18.5263 10.4983Z" fill="white"/>
<path d="M18.2582 9.68965L18.1783 10.4204L17.4531 10.5003L18.1848 10.5794L18.2647 11.3375L18.3443 10.5794L19.0626 10.4868L18.3374 10.42L18.2582 9.68965ZM28.4209 4.069C28.4209 4.21483 28.3007 4.33491 28.1547 4.33491C28.0087 4.33491 27.8889 4.21483 27.8889 4.069C27.8889 3.92282 28.0085 3.80273 28.1547 3.80273C28.3009 3.80273 28.4209 3.92318 28.4209 4.069Z" fill="white"/>
<path d="M28.1548 3.25684L28.0756 3.98813L27.3508 4.06807L28.0822 4.14746L28.1614 4.90504L28.2414 4.14746L28.9594 4.0542L28.2344 3.98777L28.1548 3.25684ZM16.3896 36.7058C16.3896 36.852 16.2695 36.9717 16.1237 36.9717C16.0532 36.9715 15.9857 36.9434 15.9358 36.8936C15.8859 36.8438 15.8578 36.7763 15.8574 36.7058C15.8574 36.5601 15.9775 36.4397 16.1237 36.4397C16.2695 36.4399 16.3896 36.5603 16.3896 36.7058Z" fill="white"/>
<path d="M16.1288 35.8936L16.0492 36.6248L15.3242 36.7044L16.0557 36.7838L16.1355 37.5414L16.215 36.7838L16.9334 36.6909L16.2085 36.6243L16.1288 35.8936Z" fill="white"/>
<path d="M51.3566 2.04395C48.1213 11.6419 35.1608 19.0533 24.2508 26.1283C17.669 30.3981 11.1343 35.3125 6.63562 39.494C5.44992 40.5967 6.87723 39.0815 6.42282 39.5472C12.7009 32.3187 19.9228 28.013 23.9136 25.3026C30.6629 20.7174 34.5017 19.5617 46.1459 8.83625" fill="#F7410A"/>
<path d="M3.08577 25.8223C1.92384 26.3903 0.883064 26.9518 0 27.5L0.53722 27.6955C1.30956 27.22 2.23674 26.7241 3.21342 26.2871M9.21987 36.5629C8.11442 37.5268 7.02724 38.5116 5.95893 39.5165L5.91032 40.2494C6.9185 39.2105 8.15695 38.0894 9.58624 36.8994" fill="#EE293D"/>
<path d="M28.5935 32.3722C37.6634 36.1034 36.0898 26.6748 31.255 19.4553C28.5145 15.3653 25.1353 12.1208 22.6868 10.3132C19.8279 8.20234 19.5488 8.02734 19.5488 8.02734C25.9332 11.0575 31.7331 18.499 34.1263 23.9814C35.2319 26.5128 38.2455 36.5281 28.6465 32.4788" fill="white"/>
</g>
<path fill-rule="evenodd" clip-rule="evenodd" d="M65.6372 12.4502V23.5613C65.7614 24.3683 65.5131 24.7408 63.7131 25.0512H52.9121L55.8295 27.8444H64.3957C68.2442 27.7203 68.9271 25.7338 69.2372 23.5613V12.4502H65.6372ZM90.0325 12.4502V23.5613C89.908 24.3683 90.1564 24.7408 91.9563 25.0512H102.758L99.84 27.8444H91.2738C87.4252 27.7203 86.7423 25.7338 86.4322 23.5613V12.4502H90.0325ZM85.6249 15.1813V18.8437C85.6249 20.3335 84.1351 21.2026 82.8935 21.3265H77.7416L74.8242 19.092H80.9073C81.5899 19.0299 82.2109 18.7195 82.3351 18.0369V16.2987C82.2107 15.3676 81.6525 15.0572 80.5346 15.1813H73.6447V27.5961H70.0445V12.5744H81.7764C84.2595 12.6985 85.5011 13.6915 85.6249 15.1813Z" fill="#CC2229"/>
<defs>
<clipPath id="clip0_145_187512">
<rect width="51.3556" height="42.4197" fill="white"/>
</clipPath>
</defs>
</svg>
