<svg width="24" height="24" viewBox="0 0 24 24" fill="none" xmlns="http://www.w3.org/2000/svg">
<path d="M5.6155 20C5.15517 20 4.77083 19.8458 4.4625 19.5375C4.15417 19.2292 4 18.8448 4 18.3845V5.6155C4 5.15517 4.15417 4.77083 4.4625 4.4625C4.77083 4.15417 5.15517 4 5.6155 4H10.7308C10.8731 4 10.992 4.04775 11.0875 4.14325C11.183 4.23875 11.2308 4.35767 11.2308 4.5C11.2308 4.64233 11.183 4.76125 11.0875 4.85675C10.992 4.95225 10.8731 5 10.7308 5H5.6155C5.4615 5 5.32042 5.06408 5.19225 5.19225C5.06408 5.32042 5 5.4615 5 5.6155V18.3845C5 18.5385 5.06408 18.6796 5.19225 18.8078C5.32042 18.9359 5.4615 19 5.6155 19H18.3845C18.5385 19 18.6796 18.9359 18.8078 18.8078C18.9359 18.6796 19 18.5385 19 18.3845V13.2692C19 13.1269 19.0477 13.008 19.1432 12.9125C19.2387 12.817 19.3577 12.7692 19.5 12.7692C19.6423 12.7692 19.7613 12.817 19.8568 12.9125C19.9523 13.008 20 13.1269 20 13.2692V18.3845C20 18.8448 19.8458 19.2292 19.5375 19.5375C19.2292 19.8458 18.8448 20 18.3845 20H5.6155ZM19 5.70775L10.0923 14.6155C9.99875 14.709 9.884 14.759 9.748 14.7655C9.61217 14.7718 9.491 14.7218 9.3845 14.6155C9.27817 14.509 9.225 14.391 9.225 14.2615C9.225 14.132 9.27817 14.0141 9.3845 13.9078L18.2923 5H14.5C14.3577 5 14.2387 4.95225 14.1432 4.85675C14.0477 4.76125 14 4.64233 14 4.5C14 4.35767 14.0477 4.23875 14.1432 4.14325C14.2387 4.04775 14.3577 4 14.5 4H19.1923C19.4244 4 19.6171 4.07658 19.7703 4.22975C19.9234 4.38292 20 4.57558 20 4.80775V9.5C20 9.64233 19.9523 9.76125 19.8568 9.85675C19.7613 9.95225 19.6423 10 19.5 10C19.3577 10 19.2387 9.95225 19.1432 9.85675C19.0477 9.76125 19 9.64233 19 9.5V5.70775Z" fill="#E3E3E3"/>
</svg>
