<svg width="24" height="24" viewBox="0 0 24 24" fill="none" xmlns="http://www.w3.org/2000/svg">
<path d="M9.53934 15.231C7.94068 15.231 6.58584 14.6756 5.47484 13.5648C4.36401 12.4538 3.80859 11.0989 3.80859 9.50028C3.80859 7.90161 4.36401 6.54678 5.47484 5.43578C6.58584 4.32495 7.94068 3.76953 9.53934 3.76953C11.138 3.76953 12.4928 4.32495 13.6038 5.43578C14.7147 6.54678 15.2701 7.90161 15.2701 9.50028C15.2701 10.1951 15.147 10.8675 14.9008 11.5175C14.6547 12.1675 14.3316 12.7233 13.9316 13.1848L19.8393 19.0925C19.9328 19.1862 19.9828 19.3009 19.9893 19.4368C19.9957 19.5728 19.9457 19.6939 19.8393 19.8003C19.7328 19.9066 19.6148 19.9598 19.4853 19.9598C19.356 19.9598 19.2381 19.9066 19.1316 19.8003L13.2238 13.8925C12.7238 14.3182 12.1488 14.6477 11.4988 14.881C10.8488 15.1144 10.1957 15.231 9.53934 15.231ZM9.53934 14.231C10.8662 14.231 11.9863 13.7743 12.8998 12.8608C13.8133 11.9474 14.2701 10.8273 14.2701 9.50028C14.2701 8.17328 13.8133 7.05311 12.8998 6.13978C11.9863 5.22628 10.8662 4.76953 9.53934 4.76953C8.21234 4.76953 7.09218 5.22628 6.17884 6.13978C5.26534 7.05311 4.80859 8.17328 4.80859 9.50028C4.80859 10.8273 5.26534 11.9474 6.17884 12.8608C7.09218 13.7743 8.21234 14.231 9.53934 14.231Z" fill="#E3E3E3"/>
</svg>
